<?xml version="1.0" standalone="no"?>
<!DOCTYPE svg PUBLIC "-//W3C//DTD SVG 20010904//EN"
 "http://www.w3.org/TR/2001/REC-SVG-20010904/DTD/svg10.dtd">
<svg version="1.0" xmlns="http://www.w3.org/2000/svg"
 width="512.000000pt" height="512.000000pt" viewBox="0 0 512.000000 512.000000"
 preserveAspectRatio="xMidYMid meet">
<metadata>
Created by potrace 1.14, written by Peter Selinger 2001-2017
</metadata>
<g transform="translate(0.000000,512.000000) scale(0.100000,-0.100000)"
fill="#000000" stroke="none">
<path d="M3865 4901 c-339 -139 -698 -458 -1047 -931 -83 -113 -242 -354 -254
-384 -3 -9 -9 -16 -13 -16 -3 0 -33 25 -66 56 -511 469 -1124 739 -1673 738
-153 0 -146 11 -150 -263 l-3 -218 -87 -17 c-136 -27 -190 -44 -207 -68 -12
-18 -15 -54 -15 -180 l0 -158 -52 0 c-177 -2 -220 -14 -263 -77 l-25 -38 0
-1513 c0 -1696 -6 -1558 73 -1610 l41 -27 997 -1 997 -1 76 24 c41 13 138 55
216 93 77 39 143 70 147 70 6 0 28 -10 232 -107 63 -30 139 -60 170 -67 44
-10 268 -13 1047 -12 l990 1 41 27 c80 53 74 -88 71 1616 l-3 1521 -21 28
c-39 52 -79 67 -184 69 -52 1 -102 3 -111 3 -13 1 -15 22 -14 152 1 196 -1
200 -104 228 -43 12 -82 21 -89 21 -6 0 -34 5 -62 11 l-50 11 0 213 c0 211 0
214 -24 242 -23 27 -26 27 -132 27 -107 -1 -232 -10 -266 -20 -10 -3 -18 -2
-19 3 0 4 -1 124 -1 267 -1 248 -2 259 -22 282 -32 36 -63 37 -141 5z m0
-1555 c1 -752 -2 -1370 -5 -1374 -3 -5 -30 -19 -60 -31 -108 -46 -330 -200
-464 -321 -143 -130 -278 -277 -464 -505 -27 -33 -155 -217 -191 -272 -18 -29
-34 -53 -35 -53 0 0 -1 591 -1 1314 l0 1313 54 89 c248 409 547 773 816 994
122 100 317 224 340 216 7 -2 10 -467 10 -1370z m-2875 849 c226 -23 488 -104
715 -221 241 -124 447 -266 649 -447 121 -108 126 -114 127 -160 4 -128 3
-2667 -1 -2667 -3 0 -21 15 -40 33 -234 218 -638 462 -945 570 -101 36 -255
81 -310 91 -16 3 -39 8 -50 10 -12 2 -48 8 -80 12 -33 4 -64 8 -70 9 -5 1 -45
3 -87 3 l-78 2 0 1383 c0 761 3 1386 6 1390 6 5 55 3 164 -8z m3318 -1377 l2
-1388 -52 -1 c-171 -2 -492 -65 -613 -119 -11 -5 -56 -23 -100 -40 -156 -61
-384 -184 -534 -288 -35 -25 -62 -40 -60 -34 2 6 49 68 104 138 106 136 343
382 460 479 100 84 250 180 352 226 129 58 137 63 148 86 7 14 11 383 10 1162
0 628 2 1141 5 1142 3 0 46 5 97 12 51 7 111 12 135 12 l43 0 3 -1387z m-3648
-296 c0 -1322 -4 -1236 63 -1246 18 -3 88 -7 157 -10 291 -12 602 -103 895
-264 105 -58 225 -131 225 -137 0 -2 -19 3 -42 11 -44 16 -292 80 -340 88 -14
2 -59 9 -100 15 -40 6 -89 14 -108 17 -19 3 -143 7 -275 9 -234 3 -357 -5
-512 -35 -32 -6 -70 -14 -85 -16 l-28 -5 0 1370 0 1370 63 14 c34 9 68 16 75
16 9 1 12 -245 12 -1197z m3882 1183 c25 -4 51 -10 58 -15 10 -6 13 -267 13
-1369 0 -749 -2 -1363 -5 -1366 -2 -2 -51 4 -108 15 -58 10 -136 22 -175 26
-38 3 -83 8 -100 10 -84 9 -401 3 -496 -11 -24 -3 -62 -8 -84 -11 -127 -16
-340 -63 -457 -102 -32 -11 -58 -18 -58 -16 0 14 296 177 430 238 138 62 403
136 540 151 30 3 69 8 85 10 17 2 76 4 133 4 95 1 105 3 127 26 l25 24 0 1202
c0 1014 2 1200 14 1196 7 -3 34 -8 58 -12z m-4192 -1786 l0 -1378 24 -28 24
-28 838 0 838 0 97 46 98 47 43 -20 c24 -12 58 -30 77 -41 l34 -20 -99 -50
c-198 -99 -77 -90 -1181 -92 l-973 -1 0 1471 0 1472 90 0 90 -1 0 -1377z
m4600 -94 l0 -1471 -967 1 c-1096 1 -981 -8 -1178 89 l-109 54 79 40 80 39 90
-45 90 -45 864 -1 c596 -1 865 2 868 9 2 6 5 638 7 1405 2 767 4 1395 5 1396
0 0 39 0 86 0 l85 0 0 -1471z m-3570 -988 c14 -3 45 -8 70 -11 204 -24 636
-144 610 -170 -8 -8 -242 -11 -781 -11 l-770 0 3 70 3 70 115 22 c63 12 149
25 190 29 41 3 77 8 79 10 6 6 453 -3 481 -9z m2945 -2 c79 -12 211 -36 245
-43 l35 -8 0 -69 0 -70 -767 0 c-539 0 -770 3 -778 11 -8 8 29 24 132 57 211
69 408 111 576 124 42 3 79 7 82 10 6 6 428 -4 475 -12z"/>
<path d="M1080 3617 c-33 -17 -46 -66 -29 -103 15 -31 32 -38 169 -69 302 -69
680 -258 946 -473 85 -68 151 -67 175 5 15 47 0 67 -117 154 -317 236 -656
399 -984 475 -121 28 -127 28 -160 11z"/>
<path d="M1093 2949 c-33 -12 -56 -53 -48 -88 9 -43 32 -58 115 -75 315 -66
658 -227 960 -452 85 -63 123 -86 147 -87 36 -1 61 16 74 52 17 44 -7 76 -122
161 -314 232 -632 387 -964 469 -107 26 -136 30 -162 20z"/>
<path d="M1063 2174 c-21 -21 -24 -32 -20 -60 3 -19 13 -41 21 -49 8 -9 64
-26 123 -39 299 -67 591 -203 895 -417 53 -38 102 -75 110 -82 20 -21 54 -37
77 -37 28 0 70 40 75 73 6 38 -24 71 -148 162 -301 219 -602 364 -926 446
-144 36 -173 37 -207 3z"/>
</g>
</svg>
